# 3ds Max Wavefront OBJ Exporter v0.97b - (c)2007 guruware
# File Created: 11.04.2012 16:04:51

mtllib Cardboard Desk Tidy - No Subdivision.mtl

#
# object Plane001
#

v  -39.3761 25.0000 134.5238
v  -12.7094 25.0000 134.5238
v  -12.7094 41.6667 134.5238
v  -39.3761 41.6667 134.5238
v  13.9572 25.0000 134.5238
v  13.9572 41.6667 134.5238
v  40.6239 25.0000 134.5238
v  40.6239 41.6667 134.5238
v  -12.7094 58.3333 134.5238
v  -39.3761 58.3333 134.5238
v  13.9572 58.3333 134.5238
v  40.6239 58.3333 134.5238
v  -12.7094 75.0000 134.5238
v  -39.3761 75.0000 134.5238
v  13.9572 75.0000 134.5238
v  40.6239 75.0000 134.5238
v  -12.7094 41.6667 134.4988
v  -12.7094 25.0000 134.4988
v  -39.3761 25.0000 134.4988
v  -39.3761 41.6667 134.4988
v  13.9572 41.6667 134.4988
v  13.9572 25.0000 134.4988
v  40.6239 41.6667 134.4988
v  40.6239 25.0000 134.4988
v  -12.7094 58.3333 134.4988
v  -39.3761 58.3333 134.4988
v  13.9572 58.3333 134.4988
v  40.6239 58.3333 134.4988
v  -12.7094 75.0000 134.4988
v  -39.3761 75.0000 134.4988
v  13.9572 75.0000 134.4988
v  40.6239 75.0000 134.4988
# 32 vertices

vn 0.0000 -0.0000 1.0000
vn 0.0000 0.0000 -1.0000
vn 0.0000 -1.0000 -0.0000
vn -1.0000 0.0000 -0.0000
vn 1.0000 0.0000 -0.0000
vn 0.0000 1.0000 0.0000
# 6 vertex normals

vt 0.0000 0.0000 0.0000
vt 26.6667 0.0000 0.0000
vt 26.6667 16.6667 0.0000
vt 0.0000 16.6667 0.0000
vt 53.3333 0.0000 0.0000
vt 53.3333 16.6667 0.0000
vt 80.0000 0.0000 0.0000
vt 80.0000 16.6667 0.0000
vt 26.6667 33.3333 0.0000
vt 0.0000 33.3333 0.0000
vt 53.3333 33.3333 0.0000
vt 80.0000 33.3333 0.0000
vt 26.6667 50.0000 0.0000
vt 0.0000 50.0000 0.0000
vt 53.3333 50.0000 0.0000
vt 80.0000 50.0000 0.0000
# 16 texture coords

g Plane001
usemtl wire_006135113
s 1
f 1/1/1 2/2/1 3/3/1 4/4/1 
f 2/2/1 5/5/1 6/6/1 3/3/1 
f 5/5/1 7/7/1 8/8/1 6/6/1 
f 4/4/1 3/3/1 9/9/1 10/10/1 
f 3/3/1 6/6/1 11/11/1 9/9/1 
f 6/6/1 8/8/1 12/12/1 11/11/1 
f 10/10/1 9/9/1 13/13/1 14/14/1 
f 9/9/1 11/11/1 15/15/1 13/13/1 
f 11/11/1 12/12/1 16/16/1 15/15/1 
f 17/3/2 18/2/2 19/1/2 20/4/2 
f 21/6/2 22/5/2 18/2/2 17/3/2 
f 23/8/2 24/7/2 22/5/2 21/6/2 
f 25/9/2 17/3/2 20/4/2 26/10/2 
f 27/11/2 21/6/2 17/3/2 25/9/2 
f 28/12/2 23/8/2 21/6/2 27/11/2 
f 29/13/2 25/9/2 26/10/2 30/14/2 
f 31/15/2 27/11/2 25/9/2 29/13/2 
f 32/16/2 28/12/2 27/11/2 31/15/2 
s 2
f 2/2/3 1/1/3 19/1/3 18/2/3 
s 4
f 1/1/4 4/4/4 20/4/4 19/1/4 
s 2
f 5/5/3 2/2/3 18/2/3 22/5/3 
f 7/7/3 5/5/3 22/5/3 24/7/3 
s 4
f 8/8/5 7/7/5 24/7/5 23/8/5 
f 4/4/4 10/10/4 26/10/4 20/4/4 
f 12/12/5 8/8/5 23/8/5 28/12/5 
s 2
f 14/14/6 13/13/6 29/13/6 30/14/6 
s 4
f 10/10/4 14/14/4 30/14/4 26/10/4 
s 2
f 13/13/6 15/15/6 31/15/6 29/13/6 
s 4
f 16/16/5 12/12/5 28/12/5 32/16/5 
s 2
f 15/15/6 16/16/6 32/16/6 31/15/6 
# 30 polygons

#
# object Line001
#

v  -50.3344 298.7094 -132.5000
v  0.0000 298.7094 -132.5000
v  0.0000 2.0000 -132.5000
v  -50.3344 2.0000 -132.5000
v  -52.5000 99.6039 130.3005
v  -52.5000 198.3234 0.0000
v  -52.5000 2.0000 0.0000
v  -52.5000 2.0000 130.3005
v  50.3344 97.9375 132.5000
v  0.0000 97.9375 132.5000
v  0.0000 2.0000 132.5000
v  50.3344 2.0000 132.5000
v  52.5000 2.0000 -127.8212
v  52.5000 297.0430 -127.8213
v  52.5000 198.3234 1.2500
v  52.5000 2.0000 1.2500
v  25.0000 298.7094 -130.0000
v  50.0250 298.7094 -130.0000
v  50.0250 2.0000 -130.0000
v  25.0000 2.0000 -130.0000
v  52.5000 0.0000 1.2500
v  50.3343 0.0150 1.2375
v  50.3343 0.0298 -127.3789
v  52.5000 0.0000 -127.8212
v  -52.5000 0.0000 0.0000
v  -50.3007 0.0150 0.0000
v  -50.3007 0.0298 129.8334
v  -52.5000 0.0000 130.3005
v  0.0000 0.0000 132.5000
v  -0.0000 0.0150 130.3005
v  50.2145 0.0294 130.3005
v  50.3344 0.0000 132.5000
v  0.0000 0.0000 -132.5000
v  0.0000 0.0150 -130.3788
v  -50.2145 0.0294 -130.3788
v  -50.3344 0.0000 -132.5000
v  52.5000 2.0000 -130.0000
v  52.5000 298.7094 -130.0000
v  52.5000 97.9375 132.5000
v  52.5000 2.0000 132.5000
v  52.5000 2.0000 130.3212
v  52.5000 99.6039 130.3213
v  -0.0999 3.0000 -85.0000
v  50.3343 0.0300 -129.5500
v  -0.0999 2.9751 -83.5890
v  -52.5000 97.9375 132.5000
v  -52.5000 2.0000 132.5000
v  -52.5000 2.0000 -132.5000
v  -52.5000 2.0000 -130.3005
v  -52.5000 297.0430 -130.3005
v  -52.5000 298.7094 -132.5000
v  -0.6739 3.0000 85.0000
v  -50.3007 0.0300 132.0250
v  -0.6739 2.9751 83.5890
v  -50.3344 2.0000 132.5000
v  -50.3344 97.9375 132.5000
v  40.0000 3.0000 80.0000
v  52.3750 0.0300 130.3210
v  38.3500 2.9381 80.0000
v  52.5000 2.0000 -132.5000
v  50.3344 2.0000 -132.5000
v  50.3344 298.7094 -132.5000
v  52.5000 298.7094 -132.5000
v  50.3344 0.0000 -132.5000
v  52.5000 0.0000 -132.5000
v  52.3750 0.0000 -130.3788
v  50.2145 0.0006 -130.3788
v  -40.0000 3.0000 -80.0000
v  -52.3750 0.0300 -130.3788
v  -38.3500 2.9381 -80.0000
v  -50.3344 305.0000 -132.5000
v  0.0000 305.0000 -132.5000
v  -52.5000 101.7015 130.3005
v  -52.5000 202.5000 0.0000
v  -52.5000 0.0000 -130.3005
v  50.3344 100.0000 132.5000
v  0.0000 100.0000 132.5000
v  -50.3344 0.0000 132.5000
v  52.5000 303.2985 -127.8213
v  52.5000 202.5000 1.2500
v  52.5000 0.0000 130.3212
v  25.0000 305.0000 -130.0000
v  50.0250 305.0000 -130.0000
v  52.5000 305.0000 -130.0000
v  52.5000 101.7015 130.3213
v  52.5000 100.0000 132.5000
v  -52.5000 100.0000 132.5000
v  -52.5000 303.2985 -130.3005
v  -52.5000 305.0000 -132.5000
v  -50.3344 100.0000 132.5000
v  50.3344 305.0000 -132.5000
v  52.5000 305.0000 -132.5000
v  -0.0999 0.0249 83.5890
v  -0.0999 1.5000 -0.0000
v  50.3343 0.0002 129.8539
v  -0.6739 0.0249 -83.5890
v  -0.6739 1.5000 -0.0000
v  -50.3007 0.0002 -129.8334
v  -38.3500 0.0309 80.0000
v  0.0000 1.5000 80.0000
v  -50.2145 0.0006 130.3005
v  38.3500 0.0619 -80.0000
v  0.0000 1.5000 -80.0000
v  -0.0999 0.0000 85.0000
v  50.3343 0.0000 130.3505
v  -0.6739 0.0000 -85.0000
v  -50.3007 0.0000 -132.0250
v  -40.0000 -0.0309 80.0000
v  -52.3750 0.0000 130.3005
v  40.0000 0.0000 -80.0000
v  25.0000 0.0000 -130.0000
v  50.0250 0.0000 -130.0000
# 112 vertices

vn 0.0000 0.0000 -1.0000
vn -1.0000 0.0000 -0.0000
vn 0.0000 0.0000 1.0000
vn 1.0000 0.0000 -0.0000
vn -0.0103 -0.9999 -0.0001
vn 0.0102 -0.9999 0.0001
vn 0.0001 -0.9999 -0.0101
vn -0.0001 -0.9999 0.0105
vn -0.0647 -0.9979 -0.0070
vn 0.0660 -0.9978 0.0070
vn 0.0167 -0.9979 -0.0623
vn -0.0001 -1.0000 0.0001
vn -0.0164 -0.9979 0.0622
vn -0.0117 -0.9999 -0.0070
vn 0.0120 -0.9999 0.0070
vn 0.0167 -0.9998 -0.0131
vn -0.0164 -0.9998 0.0134
vn 0.0117 -0.9998 -0.0132
vn -0.0063 -1.0000 0.0070
vn 0.0164 -0.9999 0.0040
vn -0.0164 -0.9999 -0.0033
vn 0.0001 -1.0000 -0.0035
vn 0.0164 -0.9988 -0.0456
vn -0.0001 -1.0000 0.0037
vn -0.0164 -0.9988 0.0455
vn -0.0035 -1.0000 -0.0001
vn 0.0035 -1.0000 0.0001
vn -0.0468 -0.9989 -0.0070
vn 0.0478 -0.9988 0.0070
# 29 vertex normals

vt 147.7241 -49.8343 133.0000
vt 147.7241 0.5000 133.0000
vt -148.9853 0.5000 133.0000
vt -148.9853 -49.8344 133.0000
vt -51.3813 -129.8005 -52.0001
vt 47.3382 0.5000 -52.0000
vt -148.9852 0.5000 -52.0001
vt -148.9852 -129.8005 -52.0001
vt 54.0478 50.8343 -132.0000
vt 54.0478 0.4999 -132.0000
vt 149.9853 0.4999 -132.0000
vt 149.9853 50.8343 -132.0000
vt 149.9853 128.3212 53.0000
vt -145.0577 128.3213 53.0000
vt -46.3382 -0.7500 53.0000
vt 149.9853 -0.7500 52.9999
vt 147.7241 25.5000 130.5000
vt 147.7241 50.5251 130.5000
vt -148.9853 50.5250 130.5000
vt -148.9853 25.5000 130.5000
vt -0.7500 52.9999 151.9853
vt -0.7375 50.8342 151.9703
vt 127.8789 50.8343 151.9556
vt 128.3212 53.0000 151.9853
vt 0.5000 -52.0001 151.9852
vt 0.5000 -49.8008 151.9702
vt -129.3334 -49.8008 151.9555
vt -129.8005 -52.0001 151.9852
vt -132.0000 0.4999 151.9853
vt -129.8005 0.4999 151.9703
vt -129.8005 50.7144 151.9559
vt -132.0000 50.8343 151.9853
vt 133.0000 0.5000 151.9853
vt 130.8788 0.5000 151.9703
vt 130.8788 -49.7146 151.9559
vt 133.0000 -49.8344 151.9853
vt 149.9853 130.5000 53.0000
vt -146.7241 130.5000 53.0000
vt 54.0478 -132.0000 52.9999
vt 149.9853 -132.0000 52.9999
vt 149.9853 -129.8212 52.9999
vt 52.3814 -129.8212 52.9999
vt 85.5000 0.4001 148.9853
vt 130.0500 50.8343 151.9553
vt 84.0890 0.4001 149.0102
vt -53.0477 -132.0000 -52.0001
vt -148.9852 -132.0000 -52.0001
vt -148.9853 133.0000 -52.0000
vt -148.9853 130.8005 -52.0000
vt 146.0577 130.8005 -52.0000
vt 147.7241 133.0000 -52.0000
vt -84.5000 -0.1740 148.9853
vt -131.5250 -49.8008 151.9552
vt -83.0890 -0.1740 149.0102
vt 54.0478 52.9999 -132.0000
vt 149.9853 52.9999 -132.0000
vt 149.9852 -52.0001 -132.0000
vt 149.9852 -49.8345 -132.0000
vt 54.0477 -49.8344 -132.0000
vt 54.0477 -52.0001 -132.0000
vt -79.5000 40.4999 148.9853
vt -129.8210 52.8749 151.9553
vt -79.5000 38.8499 149.0471
vt 147.7241 -52.0000 133.0000
vt -148.9853 -52.0000 133.0000
vt -148.9853 53.0000 133.0000
vt -148.9853 50.8343 133.0000
vt 147.7241 50.8344 133.0000
vt 147.7241 53.0000 133.0000
vt 133.0000 50.8343 151.9853
vt 133.0000 53.0000 151.9853
vt 130.8788 52.8750 151.9853
vt 130.8788 50.7145 151.9847
vt 80.5000 -39.5001 148.9853
vt 130.8788 -51.8750 151.9553
vt 80.5000 -37.8501 149.0471
vt 154.0148 -49.8343 133.0000
vt 154.0147 0.5001 133.0000
vt -150.9853 50.8343 133.0000
vt -150.9853 0.5000 133.0000
vt -49.2837 -129.8005 -52.0001
vt 51.5147 0.5000 -52.0000
vt -150.9853 130.8005 -52.0000
vt -150.9852 0.5000 -52.0001
vt 51.9853 50.8343 -132.0000
vt 51.9853 0.4999 -132.0000
vt 151.9852 -49.8345 -132.0000
vt 151.9853 0.4999 -132.0000
vt -151.3132 128.3213 53.0000
vt -50.5147 -0.7500 53.0000
vt 151.9853 -129.8212 52.9999
vt 151.9853 -0.7500 52.9999
vt 154.0147 25.5000 130.5000
vt 154.0147 50.5251 130.5000
vt -153.0147 130.5000 53.0000
vt 50.2838 -129.8212 52.9999
vt 51.9853 -132.0000 52.9999
vt -50.9852 -132.0000 -52.0001
vt 152.3133 130.8005 -52.0000
vt 154.0148 133.0000 -52.0000
vt 51.9853 52.9999 -132.0000
vt 51.9852 -49.8344 -132.0000
vt 51.9852 -52.0001 -132.0000
vt 154.0148 -52.0000 133.0000
vt -150.9853 53.0000 133.0000
vt 154.0147 50.8344 133.0000
vt 154.0147 53.0000 133.0000
vt -83.0890 0.4001 151.9604
vt 0.5000 0.4001 150.4853
vt -129.3539 50.8342 151.9850
vt 84.0890 -0.1740 151.9604
vt 0.5000 -0.1740 150.4853
vt 130.3334 -49.8008 151.9850
vt -79.5000 -37.8501 151.9543
vt -79.5000 0.4999 150.4853
vt -129.8005 -49.7146 151.9846
vt 80.5000 38.8499 151.9234
vt 80.5000 0.4999 150.4853
vt -84.5000 0.4001 151.9853
vt -129.8505 50.8342 151.9853
vt 85.5000 -0.1740 151.9853
vt 132.5250 -49.8008 151.9853
vt -79.5000 -39.5001 152.0162
vt -129.8005 -51.8751 151.9852
vt 80.5000 40.4999 151.9853
vt -132.0000 -49.8345 151.9852
vt 151.9853 50.8343 -132.0000
vt -150.9853 -49.8344 133.0000
vt -129.8212 52.9999 151.9853
vt 130.8005 -52.0000 151.9853
vt -150.9852 -129.8005 -52.0001
vt 151.9853 128.3212 53.0000
vt 147.7241 53.0000 130.5000
vt -148.9853 53.0000 130.5000
vt 154.0147 53.0000 130.5000
vt -150.9853 25.5000 130.5000
vt -150.9853 50.5250 130.5000
# 137 texture coords

g Line001
usemtl wire_006135113
s 1
f 33/17/7 34/18/7 35/19/7 36/20/7 
s 4
f 37/21/8 38/22/8 39/23/8 40/24/8 
s 2
f 41/25/9 42/26/9 43/27/9 44/28/9 
s 4
f 45/29/10 46/30/10 47/31/10 48/32/10 
s 2
f 49/33/7 50/34/7 51/35/7 52/36/7 
s off
f 53/37/11 54/38/11 55/39/11 56/40/11 
f 57/41/12 58/42/12 59/43/12 60/44/12 
f 61/45/13 62/46/13 63/47/13 64/48/13 
f 65/49/14 66/50/14 67/51/14 68/52/14 
s 4
f 69/53/10 70/54/10 46/30/10 45/29/10 
f 71/55/10 72/56/10 73/57/10 74/58/10 
s off
f 75/59/15 76/60/15 55/39/15 77/61/15 
s 4
f 78/62/8 37/21/8 40/24/8 79/63/8 
f 80/64/8 81/65/8 82/66/8 83/67/8 
s off
f 84/68/16 85/69/16 59/43/16 86/70/16 
s 2
f 71/71/9 41/25/9 44/28/9 72/72/9 
f 79/73/9 87/74/9 88/75/9 78/76/9 
s off
f 89/77/17 90/78/17 63/47/17 91/79/17 
s 1
f 83/80/7 33/17/7 36/20/7 80/81/7 
f 92/82/7 93/83/7 94/84/7 95/85/7 
s off
f 96/86/18 97/87/18 98/88/18 99/89/18 
f 100/90/19 101/91/19 67/51/19 102/92/19 
s 1
f 103/93/7 104/94/7 34/18/7 33/17/7 
f 96/95/7 65/96/7 35/19/7 93/83/7 
s 4
f 105/97/8 106/98/8 38/22/8 37/21/8 
f 107/99/8 57/100/8 39/23/8 81/65/8 
s 2
f 108/101/9 109/102/9 42/26/9 41/25/9 
f 110/103/9 61/104/9 43/27/9 87/74/9 
s 4
f 46/30/10 111/105/10 112/106/10 47/31/10 
f 113/107/10 53/108/10 48/32/10 73/57/10 
s 2
f 114/109/7 115/110/7 50/34/7 49/33/7 
s 4
f 70/54/10 116/111/10 111/105/10 46/30/10 
f 74/58/10 117/112/10 118/113/10 71/55/10 
f 119/114/8 105/97/8 37/21/8 78/62/8 
f 120/115/8 121/116/8 83/67/8 82/66/8 
s 2
f 118/117/9 108/101/9 41/25/9 71/71/9 
f 122/118/9 119/119/9 78/76/9 88/75/9 
s 1
f 121/120/7 103/93/7 33/17/7 83/80/7 
f 97/121/7 96/95/7 93/83/7 92/82/7 
f 123/122/7 124/123/7 95/85/7 94/84/7 
s off
f 125/124/20 126/125/20 54/38/20 127/126/20 
f 128/127/21 129/128/21 58/42/21 130/129/21 
f 131/130/22 132/131/22 62/46/22 133/132/22 
f 134/133/23 135/134/23 66/50/23 99/89/23 
f 136/135/24 125/124/24 127/126/24 137/136/24 
f 138/137/25 128/127/25 130/129/25 139/138/25 
f 140/139/26 131/130/26 133/132/26 141/140/26 
f 142/141/27 134/133/27 99/89/27 98/88/27 
s 2
f 88/75/9 87/74/9 43/27/9 42/26/9 
s off
f 110/142/28 133/132/28 62/46/28 61/45/28 
s 2
f 122/118/9 88/75/9 42/26/9 109/102/9 
f 64/143/9 44/28/9 43/27/9 61/104/9 
s off
f 91/79/29 63/47/29 62/46/29 132/131/29 
s 1
f 94/84/7 93/83/7 35/19/7 34/18/7 
s off
f 96/86/30 99/89/30 66/50/30 65/49/30 
s 1
f 123/122/7 94/84/7 34/18/7 104/94/7 
f 68/144/7 36/20/7 35/19/7 65/96/7 
s off
f 102/92/31 67/51/31 66/50/31 135/134/31 
s 4
f 38/22/8 82/66/8 81/65/8 39/23/8 
f 74/58/10 73/57/10 48/32/10 47/31/10 
s off
f 113/145/32 127/126/32 54/38/32 53/37/32 
f 107/146/33 130/129/33 58/42/33 57/41/33 
s 4
f 106/98/8 120/115/8 82/66/8 38/22/8 
f 60/147/8 40/24/8 39/23/8 57/100/8 
f 117/112/10 74/58/10 47/31/10 112/106/10 
f 56/148/10 45/29/10 48/32/10 53/108/10 
s off
f 77/61/34 55/39/34 54/38/34 126/125/34 
f 86/70/35 59/43/35 58/42/35 129/128/35 
s 2
f 70/149/7 69/150/7 51/35/7 50/34/7 
f 116/151/7 70/149/7 50/34/7 115/110/7 
f 143/152/7 52/36/7 51/35/7 144/153/7 
# 71 polygons

