# 3ds Max Wavefront OBJ Exporter v0.97b - (c)2007 guruware
# File Created: 19.04.2012 11:13:57

mtllib eraser.mtl

#
# object eraser
#

v  -8.6796 0.0000 9.0733
v  -8.6796 0.0000 -12.8000
v  38.9785 0.0000 -12.8000
v  38.9785 0.0000 9.0733
v  0.0096 10.9210 9.0733
v  47.6677 10.9210 9.0733
v  47.6677 10.9210 -12.8000
v  0.0096 10.9210 -12.8000
v  -8.1429 0.5000 9.5733
v  39.2374 0.5000 9.5733
v  47.1310 10.4210 9.5733
v  -0.2493 10.4210 9.5733
v  39.7898 0.3913 9.0733
v  39.7898 0.3913 -12.8000
v  47.8564 10.5297 -12.8000
v  47.8564 10.5297 9.0733
v  39.2374 0.5000 -13.3000
v  -8.1429 0.5000 -13.3000
v  -0.2493 10.4210 -13.3000
v  47.1310 10.4210 -13.3000
v  -8.8683 0.3913 -12.8000
v  -8.8683 0.3913 9.0733
v  -0.8017 10.5297 9.0733
v  -0.8017 10.5297 -12.8000
# 24 vertices

vn -0.4978 -0.7651 0.4084
vn -0.4978 -0.7651 -0.4084
vn 0.1858 -0.9206 -0.3434
vn 0.1858 -0.9206 0.3434
vn -0.1858 0.9206 0.3434
vn 0.4293 0.8813 0.1977
vn 0.4978 0.7651 -0.4084
vn -0.1858 0.9206 -0.3434
vn -0.3139 -0.1514 0.9373
vn 0.2118 -0.4391 0.8731
vn 0.2882 0.1390 0.9474
vn -0.2118 0.4391 0.8731
vn 0.6047 -0.7186 0.3434
vn 0.6047 -0.7186 -0.3434
vn 0.9086 -0.0868 -0.4084
vn 0.9569 -0.2128 0.1977
vn 0.2118 -0.4391 -0.8731
vn -0.3139 -0.1514 -0.9373
vn -0.2118 0.4391 -0.8731
vn 0.3139 0.1514 -0.9373
vn -0.9086 0.0868 -0.4084
vn -0.9086 0.0868 0.4084
vn -0.6047 0.7186 0.3434
vn -0.6047 0.7186 -0.3434
vn 0.5232 0.2523 0.8140
# 25 vertex normals

vt 0.9897 0.0219 0.0000
vt 0.9897 0.9781 0.0000
vt 0.0103 0.9781 0.0000
vt 0.0103 0.0219 0.0000
vt 0.0131 0.0458 0.0000
vt 0.9869 0.0458 0.0000
vt 0.9869 0.9542 0.0000
vt 0.0131 0.9542 0.0000
vt 0.0219 0.0358 0.0000
vt 0.9781 0.0358 0.0000
vt 0.9781 0.9642 0.0000
vt 0.0219 0.9642 0.0000
vt -0.0151 0.0426 0.0000
vt -0.0182 0.0083 0.0000
vt -0.0360 0.0546 0.0000
vt -0.0252 0.0134 0.0000
vt 0.0052 0.0908 0.0000
vt -0.0023 0.0097 0.0000
vt -0.0252 0.9866 0.0000
vt -0.0360 0.9454 0.0000
vt -0.0174 0.9806 0.0000
vt -0.0101 0.9152 0.0000
vt -0.0023 0.9903 0.0000
vt 0.0052 0.9092 0.0000
vt -0.0176 0.9927 0.0000
vt -0.0057 0.9531 0.0000
vt -0.0182 0.9917 0.0000
vt -0.0151 0.9574 0.0000
vt 0.9781 0.0390 0.0000
vt 0.0219 0.0390 0.0000
vt 0.9835 0.0095 0.0000
vt 0.0052 0.0183 0.0000
vt 0.9781 0.0538 0.0000
vt 0.0219 0.0538 0.0000
vt 0.9948 0.0183 0.0000
vt 0.0165 0.0095 0.0000
vt 0.0052 0.9817 0.0000
vt 0.9835 0.9905 0.0000
vt 0.0219 0.9610 0.0000
vt 0.9781 0.9610 0.0000
vt 0.0165 0.9905 0.0000
vt 0.9948 0.9817 0.0000
vt 0.0219 0.9462 0.0000
vt 0.9781 0.9462 0.0000
vt 0.0663 0.0182 0.0000
vt 0.1061 0.9173 0.0000
vt 0.9337 0.9818 0.0000
vt 0.8939 0.0827 0.0000
vt 0.0747 0.0065 0.0000
vt 0.0543 0.9406 0.0000
vt 0.1061 0.0827 0.0000
vt 0.0663 0.9818 0.0000
# 52 texture coords

g eraser
usemtl 01___Default
s 3
f 1/1/1 2/2/2 3/3/3 4/4/4 
s 5
f 5/4/5 6/1/6 7/2/7 8/3/8 
s 9
f 9/5/9 10/6/10 11/7/11 12/8/12 
s 17
f 13/9/13 14/10/14 15/11/15 16/12/16 
s 33
f 17/5/17 18/6/18 19/7/19 20/8/20 
s 65
f 21/9/21 22/10/22 23/11/23 24/12/24 
s 1
f 9/5/9 22/13/22 1/14/1 
f 4/4/4 13/15/13 10/16/10 
f 21/9/21 18/17/18 2/18/2 
f 3/3/3 17/19/17 14/20/14 
f 12/8/12 5/21/5 23/22/23 
s off
f 16/12/25 6/23/25 11/24/25 
s 1
f 24/12/24 8/25/8 19/26/19 
f 20/8/20 7/27/7 15/28/15 
f 1/29/1 22/10/22 21/9/21 2/30/2 
f 2/31/2 18/6/18 17/5/17 3/32/3 
f 3/33/3 14/10/14 13/9/13 4/34/4 
f 4/35/4 10/6/10 9/5/9 1/36/1 
f 5/37/5 12/8/12 11/7/11 6/38/6 
f 6/39/6 16/12/16 15/11/15 7/40/7 
f 7/41/7 20/8/20 19/7/19 8/42/8 
f 8/43/8 24/12/24 23/11/23 5/44/5 
f 10/45/10 13/9/13 16/12/16 11/46/11 
f 12/47/12 23/11/23 22/10/22 9/48/9 
f 14/49/14 17/5/17 20/8/20 15/50/15 
f 18/51/18 21/9/21 24/12/24 19/52/19 
# 18 polygons - 8 triangles

